<?xml version="1.0" encoding="UTF-8" standalone="no"?>
<!-- Created with Inkscape (http://www.inkscape.org/) -->

<svg
   xmlns:dc="http://purl.org/dc/elements/1.1/"
   xmlns:cc="http://creativecommons.org/ns#"
   xmlns:rdf="http://www.w3.org/1999/02/22-rdf-syntax-ns#"
   xmlns:svg="http://www.w3.org/2000/svg"
   xmlns="http://www.w3.org/2000/svg"
   xmlns:xlink="http://www.w3.org/1999/xlink"
   xmlns:sodipodi="http://sodipodi.sourceforge.net/DTD/sodipodi-0.dtd"
   xmlns:inkscape="http://www.inkscape.org/namespaces/inkscape"
   width="128"
   height="128"
   id="svg2"
   version="1.1"
   inkscape:version="0.91 r"
   sodipodi:docname="logo1.svg"
   inkscape:export-filename="/home/georg/pan.png"
   inkscape:export-xdpi="83.959999"
   inkscape:export-ydpi="83.959999">
  <defs
     id="defs4">
    <linearGradient
       id="linearGradient3785-6">
      <stop
         style="stop-color:#ffffff;stop-opacity:1;"
         offset="0"
         id="stop3787-4" />
      <stop
         style="stop-color:#d6d6d6;stop-opacity:1;"
         offset="1"
         id="stop3789-3" />
    </linearGradient>
    <linearGradient
       id="linearGradient3802-3">
      <stop
         style="stop-color:#ffc475;stop-opacity:1;"
         offset="0"
         id="stop3804-4" />
      <stop
         style="stop-color:#ff004a;stop-opacity:1;"
         offset="1"
         id="stop3806-1" />
    </linearGradient>
    <radialGradient
       inkscape:collect="always"
       xlink:href="#linearGradient3802-3"
       id="radialGradient3852"
       cx="153.60025"
       cy="1046.2241"
       fx="153.60025"
       fy="1046.2241"
       r="7.5"
       gradientTransform="matrix(1.6666654,-3.5764157e-7,3.5147543e-7,1.5999884,-101.0006,-626.5843)"
       gradientUnits="userSpaceOnUse" />
    <linearGradient
       id="linearGradient3802-3-5">
      <stop
         style="stop-color:#ffc475;stop-opacity:1;"
         offset="0"
         id="stop3804-4-7" />
      <stop
         style="stop-color:#ff004a;stop-opacity:1;"
         offset="1"
         id="stop3806-1-0" />
    </linearGradient>
    <linearGradient
       id="linearGradient3785-0-1">
      <stop
         style="stop-color:#ffffff;stop-opacity:1;"
         offset="0"
         id="stop3787-7-8" />
      <stop
         style="stop-color:#d6d6d6;stop-opacity:1;"
         offset="1"
         id="stop3789-1-7" />
    </linearGradient>
  </defs>
  <sodipodi:namedview
     id="base"
     pagecolor="#ffffff"
     bordercolor="#666666"
     borderopacity="1.0"
     inkscape:pageopacity="0.0"
     inkscape:pageshadow="2"
     inkscape:zoom="2.0000001"
     inkscape:cx="85.40602"
     inkscape:cy="15.413802"
     inkscape:document-units="px"
     inkscape:current-layer="layer1"
     showgrid="true"
     inkscape:window-width="1366"
     inkscape:window-height="743"
     inkscape:window-x="0"
     inkscape:window-y="25"
     inkscape:window-maximized="1" />
  <metadata
     id="metadata7">
    <rdf:RDF>
      <cc:Work
         rdf:about="">
        <dc:format>image/svg+xml</dc:format>
        <dc:type
           rdf:resource="http://purl.org/dc/dcmitype/StillImage" />
        <dc:title />
      </cc:Work>
    </rdf:RDF>
  </metadata>
  <g
     inkscape:label="Ebene 1"
     inkscape:groupmode="layer"
     id="layer1"
     transform="translate(0,-924.36218)">
    <path
       transform="translate(0,924.36218)"
       id="path4252"
       d="M 17.279297 106.67969 C 16.193842 106.67969 15.336102 106.93372 14.707031 107.43945 C 14.077961 107.93285 13.763672 108.60401 13.763672 109.45508 C 13.763672 109.88681 13.838311 110.25088 13.986328 110.54688 C 14.134345 110.84294 14.331431 111.09502 14.578125 111.30469 C 14.82482 111.51442 15.114228 111.70099 15.447266 111.86133 C 15.792638 112.00933 16.151442 112.15669 16.521484 112.30469 C 17.286237 112.61309 17.834931 112.89005 18.167969 113.13672 C 18.501006 113.38345 18.666016 113.71739 18.666016 114.13672 C 18.666016 114.54379 18.493809 114.84039 18.148438 115.02539 C 17.8154 115.21046 17.296829 115.30273 16.59375 115.30273 L 16.59375 115.30078 C 15.878336 115.30078 15.304762 115.22814 14.873047 115.08008 C 14.441332 114.93208 14.127043 114.82009 13.929688 114.74609 L 13.615234 116.22656 C 13.78792 116.30056 14.114649 116.40535 14.595703 116.54102 C 15.076757 116.68902 15.742654 116.76367 16.59375 116.76367 C 17.814887 116.76367 18.75251 116.53446 19.40625 116.07812 C 20.072325 115.62172 20.40625 114.95063 20.40625 114.0625 C 20.40625 113.60617 20.338807 113.22246 20.203125 112.91406 C 20.067443 112.59333 19.870357 112.32356 19.611328 112.10156 C 19.364633 111.87956 19.060832 111.68774 18.703125 111.52734 C 18.345418 111.35468 17.938807 111.18243 17.482422 111.00977 C 17.13705 110.88643 16.840445 110.76927 16.59375 110.6582 C 16.347055 110.5472 16.13753 110.42997 15.964844 110.30664 C 15.804492 110.17097 15.682046 110.02166 15.595703 109.86133 C 15.521694 109.70093 15.484375 109.51631 15.484375 109.30664 C 15.484375 108.89957 15.663777 108.60297 16.021484 108.41797 C 16.379191 108.22064 16.798243 108.12305 17.279297 108.12305 C 17.834359 108.12305 18.308414 108.17806 18.703125 108.28906 C 19.097836 108.38773 19.389197 108.48727 19.574219 108.58594 L 19.888672 107.10547 C 19.789994 107.06847 19.647911 107.02394 19.462891 106.97461 C 19.290205 106.92561 19.085922 106.88304 18.851562 106.8457 C 18.617203 106.79637 18.365114 106.75904 18.09375 106.73438 C 17.822387 106.69771 17.550661 106.67969 17.279297 106.67969 z M 25.703125 106.67969 C 25.098724 106.67969 24.537589 106.72946 24.019531 106.82812 C 23.501473 106.91446 23.132181 107.0068 22.910156 107.10547 L 23.113281 108.5293 C 23.322971 108.44296 23.63726 108.36306 24.056641 108.28906 C 24.488356 108.20273 24.987291 108.16016 25.554688 108.16016 C 25.998738 108.16016 26.357542 108.22761 26.628906 108.36328 C 26.912605 108.48661 27.134571 108.65886 27.294922 108.88086 C 27.455273 109.09059 27.56528 109.33743 27.626953 109.62109 C 27.688626 109.89249 27.720703 110.16946 27.720703 110.45312 L 27.720703 110.93555 C 27.671364 110.92288 27.584285 110.90357 27.460938 110.87891 C 27.337591 110.85424 27.190264 110.82935 27.017578 110.80469 C 26.857227 110.76735 26.685021 110.74247 26.5 110.73047 C 26.314979 110.7058 26.135577 110.69336 25.962891 110.69336 C 25.420163 110.69336 24.901592 110.75033 24.408203 110.86133 C 23.914814 110.97233 23.483323 111.14457 23.113281 111.37891 C 22.74324 111.61331 22.446635 111.9204 22.224609 112.30273 C 22.014919 112.68513 21.910156 113.14148 21.910156 113.67188 C 21.910156 114.22694 22.002479 114.70299 22.1875 115.09766 C 22.372521 115.49239 22.631806 115.81381 22.964844 116.06055 C 23.297881 116.29488 23.692053 116.46712 24.148438 116.57812 C 24.604822 116.68913 25.105709 116.74414 25.648438 116.74414 C 26.030813 116.74414 26.412545 116.72612 26.794922 116.68945 C 27.189633 116.66479 27.553681 116.63432 27.886719 116.59766 C 28.219756 116.56032 28.516361 116.52299 28.775391 116.48633 C 29.046755 116.43699 29.25628 116.39967 29.404297 116.375 L 29.404297 110.36133 C 29.404297 109.81859 29.342097 109.32493 29.21875 108.88086 C 29.095403 108.42453 28.885877 108.03753 28.589844 107.7168 C 28.306145 107.3838 27.924413 107.12976 27.443359 106.95703 C 26.97464 106.77203 26.393869 106.67969 25.703125 106.67969 z M 45.791016 106.67969 C 44.70556 106.67969 43.847821 106.93372 43.21875 107.43945 C 42.589679 107.93285 42.275391 108.60401 42.275391 109.45508 C 42.275391 109.88681 42.35003 110.25088 42.498047 110.54688 C 42.646064 110.84294 42.843149 111.09502 43.089844 111.30469 C 43.336538 111.51442 43.625947 111.70099 43.958984 111.86133 C 44.304357 112.00933 44.663162 112.15669 45.033203 112.30469 C 45.797956 112.61309 46.34665 112.89005 46.679688 113.13672 C 47.012725 113.38345 47.179688 113.71739 47.179688 114.13672 C 47.179687 114.54379 47.005528 114.84039 46.660156 115.02539 C 46.327119 115.21046 45.810501 115.30273 45.107422 115.30273 L 45.107422 115.30078 C 44.392009 115.30078 43.818434 115.22814 43.386719 115.08008 C 42.955003 114.93208 42.638762 114.82009 42.441406 114.74609 L 42.126953 116.22656 C 42.299639 116.30056 42.628321 116.40535 43.109375 116.54102 C 43.590429 116.68902 44.256327 116.76367 45.107422 116.76367 C 46.328559 116.76367 47.266182 116.53446 47.919922 116.07812 C 48.585997 115.62172 48.917969 114.95063 48.917969 114.0625 C 48.917969 113.60617 48.850526 113.22246 48.714844 112.91406 C 48.579162 112.59333 48.382076 112.32356 48.123047 112.10156 C 47.876353 111.87956 47.574504 111.68774 47.216797 111.52734 C 46.85909 111.35468 46.450525 111.18243 45.994141 111.00977 C 45.648769 110.88643 45.354117 110.76927 45.107422 110.6582 C 44.860728 110.5472 44.651202 110.42997 44.478516 110.30664 C 44.318164 110.17097 44.193765 110.02166 44.107422 109.86133 C 44.033414 109.70093 43.996094 109.51631 43.996094 109.30664 C 43.996094 108.89957 44.175496 108.60297 44.533203 108.41797 C 44.89091 108.22064 45.309962 108.12305 45.791016 108.12305 C 46.346078 108.12305 46.822086 108.17806 47.216797 108.28906 C 47.611508 108.38773 47.900917 108.48727 48.085938 108.58594 L 48.400391 107.10547 C 48.301713 107.06847 48.15963 107.02394 47.974609 106.97461 C 47.801923 106.92561 47.597641 106.88304 47.363281 106.8457 C 47.128921 106.79637 46.876832 106.75904 46.605469 106.73438 C 46.334105 106.69771 46.06238 106.67969 45.791016 106.67969 z M 54.214844 106.67969 C 53.610442 106.67969 53.049308 106.72946 52.53125 106.82812 C 52.013192 106.91446 51.6439 107.0068 51.421875 107.10547 L 51.625 108.5293 C 51.834691 108.44296 52.148979 108.36306 52.568359 108.28906 C 53.000075 108.20273 53.500962 108.16016 54.068359 108.16016 C 54.512409 108.16016 54.869262 108.22761 55.140625 108.36328 C 55.424324 108.48661 55.646289 108.65886 55.806641 108.88086 C 55.966993 109.09059 56.078952 109.33743 56.140625 109.62109 C 56.202298 109.89249 56.232422 110.16946 56.232422 110.45312 L 56.232422 110.93555 C 56.183083 110.92288 56.096004 110.90357 55.972656 110.87891 C 55.849309 110.85424 55.701983 110.82935 55.529297 110.80469 C 55.368946 110.76735 55.196739 110.74247 55.011719 110.73047 C 54.826698 110.7058 54.647296 110.69336 54.474609 110.69336 C 53.931882 110.69336 53.413311 110.75033 52.919922 110.86133 C 52.426533 110.97233 51.995042 111.14457 51.625 111.37891 C 51.254959 111.61331 50.958353 111.9204 50.736328 112.30273 C 50.526638 112.68513 50.421875 113.14148 50.421875 113.67188 C 50.421875 114.22694 50.514198 114.70299 50.699219 115.09766 C 50.884239 115.49239 51.143524 115.81381 51.476562 116.06055 C 51.8096 116.29488 52.205725 116.46712 52.662109 116.57812 C 53.118494 116.68913 53.617429 116.74414 54.160156 116.74414 C 54.542533 116.74414 54.924265 116.72612 55.306641 116.68945 C 55.701351 116.66479 56.065399 116.63432 56.398438 116.59766 C 56.731475 116.56032 57.028081 116.52299 57.287109 116.48633 C 57.558473 116.43699 57.767999 116.39967 57.916016 116.375 L 57.916016 110.36133 C 57.916016 109.81859 57.853816 109.32493 57.730469 108.88086 C 57.607122 108.42453 57.397596 108.03753 57.101562 107.7168 C 56.817864 107.3838 56.436132 107.12976 55.955078 106.95703 C 55.486359 106.77203 54.905588 106.67969 54.214844 106.67969 z M 75.300781 106.67969 C 74.745719 106.67969 74.202268 106.78447 73.671875 106.99414 C 73.141482 107.20387 72.672671 107.51817 72.265625 107.9375 C 71.858579 108.3569 71.53185 108.8879 71.285156 109.5293 C 71.038462 110.15836 70.916016 110.89887 70.916016 111.75 C 70.916016 112.47773 71.008339 113.14889 71.193359 113.76562 C 71.390715 114.37002 71.687321 114.89578 72.082031 115.33984 C 72.476743 115.78384 72.975677 116.13546 73.580078 116.39453 C 74.196813 116.6412 74.924911 116.76367 75.763672 116.76367 C 76.429747 116.76367 77.021005 116.70146 77.539062 116.57812 C 78.069456 116.45479 78.440701 116.33756 78.650391 116.22656 L 78.408203 114.7832 C 78.198513 114.88187 77.884224 114.98666 77.464844 115.09766 C 77.057798 115.19639 76.551667 115.24609 75.947266 115.24609 C 74.874145 115.24609 74.085801 114.98682 73.580078 114.46875 C 73.074354 113.95068 72.784946 113.19249 72.710938 112.19336 L 79.296875 112.19336 C 79.309208 112.09469 79.316406 111.98991 79.316406 111.87891 L 79.316406 111.58398 C 79.316406 109.93112 78.970041 108.70219 78.279297 107.90039 C 77.588552 107.08632 76.595927 106.67969 75.300781 106.67969 z M 100.07227 106.67969 C 99.467864 106.67969 98.90673 106.72946 98.388672 106.82812 C 97.870614 106.91446 97.501322 107.0068 97.279297 107.10547 L 97.482422 108.5293 C 97.692112 108.44296 98.006401 108.36306 98.425781 108.28906 C 98.857497 108.20273 99.358385 108.16016 99.925781 108.16016 C 100.36983 108.16016 100.72669 108.22761 100.99805 108.36328 C 101.28175 108.48661 101.50371 108.65886 101.66406 108.88086 C 101.82442 109.09059 101.93638 109.33743 101.99805 109.62109 C 102.05971 109.89249 102.08984 110.16946 102.08984 110.45312 L 102.08984 110.93555 C 102.0405 110.92288 101.95342 110.90357 101.83008 110.87891 C 101.70673 110.85424 101.55941 110.82935 101.38672 110.80469 C 101.22637 110.76735 101.05416 110.74247 100.86914 110.73047 C 100.68412 110.7058 100.50472 110.69336 100.33203 110.69336 C 99.789303 110.69336 99.270733 110.75033 98.777344 110.86133 C 98.283955 110.97233 97.852463 111.14457 97.482422 111.37891 C 97.112381 111.61331 96.817728 111.9204 96.595703 112.30273 C 96.386013 112.68513 96.279297 113.14148 96.279297 113.67188 C 96.279297 114.22694 96.373573 114.70299 96.558594 115.09766 C 96.743614 115.49239 97.000947 115.81381 97.333984 116.06055 C 97.667022 116.29488 98.063147 116.46712 98.519531 116.57812 C 98.975916 116.68913 99.474852 116.74414 100.01758 116.74414 C 100.39996 116.74414 100.78169 116.72612 101.16406 116.68945 C 101.55878 116.66479 101.92283 116.63432 102.25586 116.59766 C 102.5889 116.56032 102.8855 116.52299 103.14453 116.48633 C 103.4159 116.43699 103.62542 116.39967 103.77344 116.375 L 103.77344 110.36133 C 103.77344 109.81859 103.71124 109.32493 103.58789 108.88086 C 103.46454 108.42453 103.25502 108.03753 102.95898 107.7168 C 102.67529 107.3838 102.29356 107.12976 101.8125 106.95703 C 101.34379 106.77203 100.76301 106.67969 100.07227 106.67969 z M 64.880859 106.7168 C 64.153111 106.7168 63.499653 106.84122 62.919922 107.08789 C 62.34019 107.32229 61.846499 107.6542 61.439453 108.08594 C 61.044742 108.50527 60.742894 109.01145 60.533203 109.60352 C 60.323513 110.18325 60.21875 110.82428 60.21875 111.52734 C 60.21875 112.32914 60.33071 113.01988 60.552734 113.59961 C 60.77476 114.17934 61.076608 114.66588 61.458984 115.06055 C 61.841361 115.44295 62.285292 115.72711 62.791016 115.91211 C 63.309074 116.09718 63.857768 116.18945 64.4375 116.18945 C 65.004897 116.18945 65.498589 116.11682 65.917969 115.96875 C 66.349684 115.80842 66.639093 115.67874 66.787109 115.58008 L 66.787109 115.98633 C 66.787109 116.87446 66.5599 117.52262 66.103516 117.92969 C 65.659466 118.33669 64.924172 118.53906 63.900391 118.53906 C 63.357663 118.53906 62.833848 118.48405 62.328125 118.37305 C 61.834736 118.27438 61.415685 118.15715 61.070312 118.02148 L 60.755859 119.51953 C 61.150571 119.65526 61.612185 119.77243 62.142578 119.87109 C 62.685306 119.96976 63.25888 120.01953 63.863281 120.01953 C 65.417456 120.01953 66.577045 119.68755 67.341797 119.02148 C 68.10655 118.35542 68.490234 117.28098 68.490234 115.80078 L 68.490234 107.2168 C 68.083189 107.11806 67.577058 107.01334 66.972656 106.90234 C 66.38059 106.77901 65.682616 106.7168 64.880859 106.7168 z M 89.697266 106.7168 C 88.895508 106.7168 88.185095 106.77901 87.568359 106.90234 C 86.963958 107.01334 86.457827 107.11806 86.050781 107.2168 L 86.050781 119.96484 L 87.771484 119.96484 L 87.771484 116.11523 C 87.981175 116.2509 88.295464 116.39302 88.714844 116.54102 C 89.146559 116.68902 89.64025 116.76367 90.195312 116.76367 C 90.886056 116.76367 91.49695 116.6412 92.027344 116.39453 C 92.570071 116.14786 93.026443 115.80149 93.396484 115.35742 C 93.766526 114.91336 94.043495 114.38236 94.228516 113.76562 C 94.425871 113.14889 94.525391 112.47773 94.525391 111.75 C 94.525391 110.97287 94.408187 110.27494 94.173828 109.6582 C 93.951803 109.02914 93.630317 108.50003 93.210938 108.06836 C 92.791557 107.63663 92.287379 107.30276 91.695312 107.06836 C 91.103246 106.83403 90.437348 106.7168 89.697266 106.7168 z M 110.44336 106.7168 C 109.59227 106.7168 108.83929 106.77181 108.18555 106.88281 C 107.53181 106.99381 107.00799 107.09853 106.61328 107.19727 L 106.61328 116.54102 L 108.33398 116.54102 L 108.33398 108.41992 C 108.39566 108.40726 108.49518 108.38795 108.63086 108.36328 C 108.77888 108.33928 108.93865 108.32126 109.11133 108.30859 C 109.29635 108.28393 109.48819 108.26591 109.68555 108.25391 C 109.8829 108.24124 110.07279 108.23438 110.25781 108.23438 C 110.7142 108.23437 111.09788 108.29659 111.40625 108.41992 C 111.71462 108.53092 111.9595 108.71554 112.14453 108.97461 C 112.32955 109.23361 112.4592 109.57279 112.5332 109.99219 C 112.61954 110.41152 112.66406 110.9177 112.66406 111.50977 L 112.66406 116.54102 L 114.38477 116.54102 L 114.38477 111.13867 C 114.38477 110.48494 114.32257 109.88648 114.19922 109.34375 C 114.07587 108.80102 113.85915 108.33943 113.55078 107.95703 C 113.25475 107.56236 112.85533 107.26051 112.34961 107.05078 C 111.84388 106.82878 111.20811 106.7168 110.44336 106.7168 z M 32.132812 106.91992 L 32.132812 112.32227 C 32.132812 112.976 32.200255 113.57445 32.335938 114.11719 C 32.47162 114.64759 32.693585 115.11113 33.001953 115.50586 C 33.310321 115.90059 33.716933 116.20769 34.222656 116.42969 C 34.72838 116.63935 35.351714 116.74609 36.091797 116.74609 C 36.942893 116.74609 37.688673 116.68913 38.330078 116.57812 C 38.983818 116.46712 39.509586 116.36234 39.904297 116.26367 L 39.904297 106.91992 L 38.183594 106.91992 L 38.183594 115.04297 C 38.12192 115.06764 38.017157 115.09057 37.869141 115.11523 C 37.733459 115.1279 37.578936 115.14721 37.40625 115.17188 C 37.233564 115.18454 37.048918 115.19698 36.851562 115.20898 C 36.654207 115.22165 36.462364 115.22852 36.277344 115.22852 C 35.401579 115.22852 34.778245 114.97448 34.408203 114.46875 C 34.038162 113.96302 33.853516 113.12493 33.853516 111.95312 L 33.853516 106.91992 L 32.132812 106.91992 z M 75.28125 108.14258 C 75.984329 108.14258 76.534976 108.39472 76.929688 108.90039 C 77.336731 109.39379 77.533818 110.02951 77.521484 110.80664 L 72.748047 110.80664 C 72.785051 110.47357 72.857737 110.14684 72.96875 109.82617 C 73.092097 109.50544 73.25906 109.22128 73.46875 108.97461 C 73.67844 108.72788 73.930529 108.53081 74.226562 108.38281 C 74.534931 108.22248 74.886539 108.14258 75.28125 108.14258 z M 64.900391 108.23438 C 65.393779 108.23438 65.782708 108.25926 66.066406 108.30859 C 66.36244 108.34559 66.596845 108.38817 66.769531 108.4375 L 66.769531 114.0625 C 66.547507 114.23523 66.243705 114.38972 65.861328 114.52539 C 65.478952 114.64872 65.0599 114.70898 64.603516 114.70898 C 64.270478 114.70898 63.94375 114.64872 63.623047 114.52539 C 63.314679 114.40206 63.03771 114.21024 62.791016 113.95117 C 62.556656 113.69217 62.364814 113.36544 62.216797 112.9707 C 62.081115 112.57597 62.013672 112.10194 62.013672 111.54688 C 62.013672 110.54781 62.260518 109.74503 62.753906 109.14062 C 63.25963 108.53622 63.975287 108.23438 64.900391 108.23438 z M 89.677734 108.25195 C 90.602838 108.25195 91.343375 108.55576 91.898438 109.16016 C 92.4535 109.76456 92.730469 110.62753 92.730469 111.75 C 92.730469 112.2434 92.680709 112.70505 92.582031 113.13672 C 92.483353 113.55612 92.323587 113.92536 92.101562 114.24609 C 91.879537 114.55443 91.590129 114.80133 91.232422 114.98633 C 90.88705 115.15906 90.467998 115.24609 89.974609 115.24609 C 89.50589 115.24609 89.074399 115.16626 88.679688 115.00586 C 88.284977 114.84553 87.981175 114.67853 87.771484 114.50586 L 87.771484 108.4375 C 87.94417 108.38783 88.173333 108.34526 88.457031 108.30859 C 88.753065 108.27193 89.159676 108.25195 89.677734 108.25195 z M 26.111328 112.08398 C 26.506039 112.08398 26.838011 112.10692 27.109375 112.15625 C 27.393074 112.19358 27.597356 112.24335 27.720703 112.30469 L 27.720703 115.17383 C 27.511012 115.22316 27.244531 115.25854 26.923828 115.2832 C 26.61546 115.2952 26.258608 115.30273 25.851562 115.30273 C 25.173152 115.30273 24.636898 115.18557 24.242188 114.95117 C 23.847476 114.70451 23.650391 114.27298 23.650391 113.65625 C 23.650391 113.32318 23.730274 113.05671 23.890625 112.85938 C 24.050976 112.64971 24.248062 112.48997 24.482422 112.37891 C 24.729116 112.25591 24.993645 112.17601 25.277344 112.13867 C 25.573377 112.10201 25.852299 112.08398 26.111328 112.08398 z M 54.623047 112.08398 C 55.017758 112.08398 55.34973 112.10692 55.621094 112.15625 C 55.904792 112.19358 56.109075 112.24335 56.232422 112.30469 L 56.232422 115.17383 C 56.022732 115.22316 55.758203 115.25854 55.4375 115.2832 C 55.129132 115.2952 54.770327 115.30273 54.363281 115.30273 C 53.684872 115.30273 53.148618 115.18557 52.753906 114.95117 C 52.359196 114.70451 52.162109 114.27298 52.162109 113.65625 C 52.162109 113.32318 52.241992 113.05671 52.402344 112.85938 C 52.562695 112.64971 52.759781 112.48997 52.994141 112.37891 C 53.240835 112.25591 53.505364 112.17601 53.789062 112.13867 C 54.085096 112.10201 54.364018 112.08398 54.623047 112.08398 z M 100.48047 112.08398 C 100.87518 112.08398 101.20715 112.10692 101.47852 112.15625 C 101.76221 112.19358 101.96649 112.24335 102.08984 112.30469 L 102.08984 115.17383 C 101.88015 115.22316 101.61562 115.25854 101.29492 115.2832 C 100.98655 115.2952 100.62774 115.30273 100.2207 115.30273 C 99.54229 115.30273 99.006039 115.18557 98.611328 114.95117 C 98.216617 114.70451 98.019531 114.27298 98.019531 113.65625 C 98.019531 113.32318 98.099414 113.05671 98.259766 112.85938 C 98.420117 112.64971 98.617203 112.48997 98.851562 112.37891 C 99.098256 112.25591 99.364739 112.17601 99.648438 112.13867 C 99.94447 112.10201 100.22144 112.08398 100.48047 112.08398 z "
       style="font-style:normal;font-variant:normal;font-weight:normal;font-stretch:normal;font-size:medium;line-height:125%;font-family:Ubuntu;-inkscape-font-specification:Ubuntu;letter-spacing:0px;word-spacing:0px;fill:#ffffff;fill-opacity:1;stroke:none;stroke-width:1px;stroke-linecap:butt;stroke-linejoin:miter;stroke-opacity:1" />
    <path
       style="opacity:1;fill:#f57900;fill-opacity:1;stroke:none;stroke-width:0.3125;stroke-miterlimit:4;stroke-dasharray:none"
       d="M 16 0 C 7.136 0 0 7.1360016 0 16 L 0 112 C 0 120.864 7.136 128 16 128 L 112 128 C 120.864 128 128 120.864 128 112 L 128 16 C 128 7.1360016 120.864 0 112 0 L 16 0 z "
       transform="translate(0,924.36218)"
       id="rect4207" />
    <path
       style="opacity:1;fill:#ffffff;fill-opacity:1;stroke:none;stroke-width:0.3125;stroke-miterlimit:4;stroke-dasharray:none"
       d="M 77.03125 18.900391 A 57.873474 57.873474 0 0 0 19.15625 76.773438 A 57.873474 57.873474 0 0 0 50.191406 128 L 103.89062 128 A 57.873474 57.873474 0 0 0 128 104.14453 L 128 49.462891 A 57.873474 57.873474 0 0 0 77.03125 18.900391 z "
       transform="translate(0,924.36218)"
       id="rect4159" />
    <path
       style="font-style:normal;font-variant:normal;font-weight:normal;font-stretch:normal;font-size:medium;line-height:125%;font-family:Ubuntu;-inkscape-font-specification:Ubuntu;letter-spacing:0px;word-spacing:0px;fill:#ffffff;fill-opacity:1;stroke:#ffffff;stroke-width:2;stroke-linecap:butt;stroke-linejoin:round;stroke-opacity:1;stroke-miterlimit:4;stroke-dasharray:none"
       d="M 17.279297 106.67969 C 16.193842 106.67969 15.336102 106.93372 14.707031 107.43945 C 14.077961 107.93285 13.763672 108.60401 13.763672 109.45508 C 13.763672 109.88681 13.838311 110.25088 13.986328 110.54688 C 14.134345 110.84293 14.331431 111.09502 14.578125 111.30469 C 14.82482 111.51442 15.114228 111.70099 15.447266 111.86133 C 15.792638 112.00933 16.151442 112.15669 16.521484 112.30469 C 17.286237 112.61309 17.834931 112.89005 18.167969 113.13672 C 18.501006 113.38345 18.666016 113.71739 18.666016 114.13672 C 18.666016 114.54379 18.493809 114.84039 18.148438 115.02539 C 17.8154 115.21046 17.296829 115.30273 16.59375 115.30273 L 16.59375 115.30078 C 15.878336 115.30078 15.304762 115.22814 14.873047 115.08008 C 14.441332 114.93208 14.127043 114.82009 13.929688 114.74609 L 13.615234 116.22656 C 13.78792 116.30056 14.114649 116.40535 14.595703 116.54102 C 15.076757 116.68902 15.742654 116.76367 16.59375 116.76367 C 17.814887 116.76367 18.75251 116.53447 19.40625 116.07812 C 20.072325 115.62172 20.40625 114.95063 20.40625 114.0625 C 20.40625 113.60617 20.338807 113.22246 20.203125 112.91406 C 20.067443 112.59333 19.870357 112.32356 19.611328 112.10156 C 19.364633 111.87956 19.060832 111.68774 18.703125 111.52734 C 18.345418 111.35468 17.938807 111.18243 17.482422 111.00977 C 17.13705 110.88643 16.840445 110.76927 16.59375 110.6582 C 16.347055 110.5472 16.13753 110.42997 15.964844 110.30664 C 15.804492 110.17097 15.682046 110.02166 15.595703 109.86133 C 15.521694 109.70093 15.484375 109.51631 15.484375 109.30664 C 15.484375 108.89957 15.663777 108.60297 16.021484 108.41797 C 16.379191 108.22064 16.798243 108.12305 17.279297 108.12305 C 17.834359 108.12305 18.308414 108.17806 18.703125 108.28906 C 19.097836 108.38773 19.389197 108.48727 19.574219 108.58594 L 19.888672 107.10547 C 19.789994 107.06847 19.647911 107.02394 19.462891 106.97461 C 19.290205 106.92561 19.085922 106.88304 18.851562 106.8457 C 18.617203 106.79637 18.365114 106.75903 18.09375 106.73438 C 17.822387 106.6977 17.550661 106.67969 17.279297 106.67969 z M 25.703125 106.67969 C 25.098724 106.67969 24.537589 106.72947 24.019531 106.82812 C 23.501473 106.91447 23.132181 107.0068 22.910156 107.10547 L 23.113281 108.5293 C 23.322971 108.44296 23.63726 108.36306 24.056641 108.28906 C 24.488356 108.20273 24.987291 108.16016 25.554688 108.16016 C 25.998738 108.16016 26.357542 108.22761 26.628906 108.36328 C 26.912605 108.48661 27.134571 108.65886 27.294922 108.88086 C 27.455273 109.09059 27.56528 109.33743 27.626953 109.62109 C 27.688626 109.89249 27.720703 110.16947 27.720703 110.45312 L 27.720703 110.93555 C 27.671364 110.92288 27.584285 110.90357 27.460938 110.87891 C 27.337591 110.85424 27.190264 110.82935 27.017578 110.80469 C 26.857227 110.76735 26.685021 110.74247 26.5 110.73047 C 26.314979 110.7058 26.135577 110.69336 25.962891 110.69336 C 25.420163 110.69336 24.901592 110.75033 24.408203 110.86133 C 23.914814 110.97233 23.483323 111.14457 23.113281 111.37891 C 22.74324 111.61331 22.446635 111.9204 22.224609 112.30273 C 22.014919 112.68513 21.910156 113.14147 21.910156 113.67188 C 21.910156 114.22693 22.002479 114.70299 22.1875 115.09766 C 22.372521 115.49239 22.631806 115.81381 22.964844 116.06055 C 23.297881 116.29488 23.692053 116.46713 24.148438 116.57812 C 24.604821 116.68914 25.105709 116.74414 25.648438 116.74414 C 26.030812 116.74414 26.412545 116.72612 26.794922 116.68945 C 27.189633 116.66479 27.553681 116.63432 27.886719 116.59766 C 28.219756 116.56032 28.516361 116.52299 28.775391 116.48633 C 29.046755 116.43699 29.25628 116.39967 29.404297 116.375 L 29.404297 110.36133 C 29.404297 109.81859 29.342097 109.32493 29.21875 108.88086 C 29.095403 108.42453 28.885877 108.03753 28.589844 107.7168 C 28.306145 107.3838 27.924413 107.12976 27.443359 106.95703 C 26.97464 106.77203 26.393869 106.67969 25.703125 106.67969 z M 32.132812 106.91992 L 32.132812 112.32227 C 32.132812 112.976 32.200254 113.57445 32.335938 114.11719 C 32.47162 114.64759 32.693585 115.11113 33.001953 115.50586 C 33.310321 115.90059 33.716933 116.20769 34.222656 116.42969 C 34.72838 116.63935 35.351714 116.74609 36.091797 116.74609 C 36.942893 116.74609 37.688673 116.68914 38.330078 116.57812 C 38.983818 116.46712 39.509586 116.36234 39.904297 116.26367 L 39.904297 106.91992 L 38.183594 106.91992 L 38.183594 115.04297 C 38.12192 115.06764 38.017157 115.09057 37.869141 115.11523 C 37.733459 115.1279 37.578936 115.1472 37.40625 115.17188 C 37.233564 115.18453 37.048918 115.19698 36.851562 115.20898 C 36.654207 115.22165 36.462364 115.22852 36.277344 115.22852 C 35.401579 115.22852 34.778245 114.97448 34.408203 114.46875 C 34.038162 113.96302 33.853516 113.12493 33.853516 111.95312 L 33.853516 106.91992 L 32.132812 106.91992 z M 26.111328 112.08398 C 26.506039 112.08398 26.838011 112.10692 27.109375 112.15625 C 27.393074 112.19358 27.597356 112.24335 27.720703 112.30469 L 27.720703 115.17383 C 27.511012 115.22316 27.244531 115.25854 26.923828 115.2832 C 26.61546 115.2952 26.258608 115.30273 25.851562 115.30273 C 25.173153 115.30273 24.636897 115.18557 24.242188 114.95117 C 23.847476 114.70451 23.650391 114.27298 23.650391 113.65625 C 23.650391 113.32318 23.730274 113.05671 23.890625 112.85938 C 24.050976 112.6497 24.248062 112.48997 24.482422 112.37891 C 24.729116 112.25591 24.993645 112.17601 25.277344 112.13867 C 25.573377 112.10201 25.852299 112.08398 26.111328 112.08398 z "
       id="path4178"
       transform="translate(0,924.36218)" />
    <path
       style="font-style:normal;font-variant:normal;font-weight:normal;font-stretch:normal;font-size:medium;line-height:125%;font-family:Ubuntu;-inkscape-font-specification:Ubuntu;letter-spacing:0px;word-spacing:0px;fill:#f57900;fill-opacity:1;stroke:none;stroke-width:1px;stroke-linecap:butt;stroke-linejoin:miter;stroke-opacity:1"
       d="M 45.791016 106.67969 C 44.70556 106.67969 43.847821 106.93372 43.21875 107.43945 C 42.589679 107.93285 42.275391 108.60401 42.275391 109.45508 C 42.275391 109.88681 42.35003 110.25088 42.498047 110.54688 C 42.646064 110.84293 42.843149 111.09502 43.089844 111.30469 C 43.336538 111.51442 43.625947 111.70099 43.958984 111.86133 C 44.304357 112.00933 44.663162 112.15669 45.033203 112.30469 C 45.797956 112.61309 46.346649 112.89005 46.679688 113.13672 C 47.012725 113.38345 47.179688 113.71739 47.179688 114.13672 C 47.179687 114.54379 47.005528 114.84039 46.660156 115.02539 C 46.327119 115.21046 45.810501 115.30273 45.107422 115.30273 L 45.107422 115.30078 C 44.392009 115.30078 43.818434 115.22814 43.386719 115.08008 C 42.955003 114.93208 42.638762 114.82009 42.441406 114.74609 L 42.126953 116.22656 C 42.299639 116.30056 42.628321 116.40535 43.109375 116.54102 C 43.590429 116.68902 44.256327 116.76367 45.107422 116.76367 C 46.328559 116.76367 47.266182 116.53447 47.919922 116.07812 C 48.585997 115.62172 48.917969 114.95063 48.917969 114.0625 C 48.917969 113.60617 48.850526 113.22246 48.714844 112.91406 C 48.579162 112.59333 48.382076 112.32356 48.123047 112.10156 C 47.876353 111.87956 47.574504 111.68774 47.216797 111.52734 C 46.85909 111.35468 46.450525 111.18243 45.994141 111.00977 C 45.648769 110.88643 45.354117 110.76927 45.107422 110.6582 C 44.860728 110.5472 44.651202 110.42997 44.478516 110.30664 C 44.318164 110.17097 44.193765 110.02166 44.107422 109.86133 C 44.033414 109.70093 43.996094 109.51631 43.996094 109.30664 C 43.996094 108.89957 44.175496 108.60297 44.533203 108.41797 C 44.89091 108.22064 45.309962 108.12305 45.791016 108.12305 C 46.346078 108.12305 46.822086 108.17806 47.216797 108.28906 C 47.611508 108.38773 47.900917 108.48727 48.085938 108.58594 L 48.400391 107.10547 C 48.301713 107.06847 48.15963 107.02394 47.974609 106.97461 C 47.801923 106.92561 47.597641 106.88304 47.363281 106.8457 C 47.128921 106.79637 46.876832 106.75903 46.605469 106.73438 C 46.334105 106.6977 46.06238 106.67969 45.791016 106.67969 z M 54.214844 106.67969 C 53.610442 106.67969 53.049308 106.72947 52.53125 106.82812 C 52.013192 106.91447 51.6439 107.0068 51.421875 107.10547 L 51.625 108.5293 C 51.834691 108.44296 52.148979 108.36306 52.568359 108.28906 C 53.000075 108.20273 53.500962 108.16016 54.068359 108.16016 C 54.512409 108.16016 54.869262 108.22761 55.140625 108.36328 C 55.424324 108.48661 55.646289 108.65886 55.806641 108.88086 C 55.966993 109.09059 56.078952 109.33743 56.140625 109.62109 C 56.202298 109.89249 56.232422 110.16947 56.232422 110.45312 L 56.232422 110.93555 C 56.183083 110.92288 56.096004 110.90357 55.972656 110.87891 C 55.849309 110.85424 55.701983 110.82935 55.529297 110.80469 C 55.368946 110.76735 55.196739 110.74247 55.011719 110.73047 C 54.826698 110.7058 54.647296 110.69336 54.474609 110.69336 C 53.931882 110.69336 53.413311 110.75033 52.919922 110.86133 C 52.426533 110.97233 51.995042 111.14457 51.625 111.37891 C 51.254959 111.61331 50.958353 111.9204 50.736328 112.30273 C 50.526638 112.68513 50.421875 113.14147 50.421875 113.67188 C 50.421875 114.22693 50.514198 114.70299 50.699219 115.09766 C 50.884239 115.49239 51.143524 115.81381 51.476562 116.06055 C 51.809601 116.29488 52.205725 116.46713 52.662109 116.57812 C 53.118494 116.68914 53.617429 116.74414 54.160156 116.74414 C 54.542533 116.74414 54.924265 116.72612 55.306641 116.68945 C 55.701351 116.66479 56.065399 116.63432 56.398438 116.59766 C 56.731475 116.56032 57.028081 116.52299 57.287109 116.48633 C 57.558473 116.43699 57.767999 116.39967 57.916016 116.375 L 57.916016 110.36133 C 57.916016 109.81859 57.853816 109.32493 57.730469 108.88086 C 57.607122 108.42453 57.397596 108.03753 57.101562 107.7168 C 56.817864 107.3838 56.436132 107.12976 55.955078 106.95703 C 55.486359 106.77203 54.905588 106.67969 54.214844 106.67969 z M 75.300781 106.67969 C 74.745719 106.67969 74.202268 106.78447 73.671875 106.99414 C 73.141482 107.20387 72.672671 107.51817 72.265625 107.9375 C 71.858579 108.3569 71.53185 108.8879 71.285156 109.5293 C 71.038462 110.15836 70.916016 110.89887 70.916016 111.75 C 70.916016 112.47773 71.008339 113.14889 71.193359 113.76562 C 71.390715 114.37002 71.687321 114.89578 72.082031 115.33984 C 72.476743 115.78384 72.975677 116.13546 73.580078 116.39453 C 74.196813 116.6412 74.924911 116.76367 75.763672 116.76367 C 76.429747 116.76367 77.021006 116.70146 77.539062 116.57812 C 78.069457 116.4548 78.440701 116.33756 78.650391 116.22656 L 78.408203 114.7832 C 78.198513 114.88187 77.884224 114.98666 77.464844 115.09766 C 77.057798 115.19639 76.551667 115.24609 75.947266 115.24609 C 74.874145 115.24609 74.085801 114.98682 73.580078 114.46875 C 73.074354 113.95068 72.784946 113.19249 72.710938 112.19336 L 79.296875 112.19336 C 79.309208 112.09469 79.316406 111.98991 79.316406 111.87891 L 79.316406 111.58398 C 79.316406 109.93112 78.970041 108.70219 78.279297 107.90039 C 77.588552 107.08632 76.595927 106.67969 75.300781 106.67969 z M 100.07227 106.67969 C 99.46786 106.67969 98.90673 106.72947 98.388672 106.82812 C 97.870614 106.91447 97.501322 107.0068 97.279297 107.10547 L 97.482422 108.5293 C 97.692112 108.44296 98.006401 108.36306 98.425781 108.28906 C 98.857497 108.20273 99.358385 108.16016 99.925781 108.16016 C 100.36983 108.16016 100.72669 108.22761 100.99805 108.36328 C 101.28175 108.48661 101.50371 108.65886 101.66406 108.88086 C 101.82442 109.09059 101.93638 109.33743 101.99805 109.62109 C 102.05971 109.89249 102.08984 110.16947 102.08984 110.45312 L 102.08984 110.93555 C 102.0405 110.92288 101.95342 110.90357 101.83008 110.87891 C 101.70673 110.85424 101.55941 110.82935 101.38672 110.80469 C 101.22637 110.76735 101.05416 110.74247 100.86914 110.73047 C 100.68412 110.7058 100.50472 110.69336 100.33203 110.69336 C 99.789304 110.69336 99.270733 110.75033 98.777344 110.86133 C 98.283955 110.97233 97.852463 111.14457 97.482422 111.37891 C 97.112381 111.61331 96.817728 111.9204 96.595703 112.30273 C 96.386013 112.68513 96.279297 113.14147 96.279297 113.67188 C 96.279297 114.22693 96.373573 114.70299 96.558594 115.09766 C 96.743614 115.49239 97.000947 115.81381 97.333984 116.06055 C 97.667022 116.29488 98.063147 116.46713 98.519531 116.57812 C 98.975916 116.68914 99.47485 116.74414 100.01758 116.74414 C 100.39996 116.74414 100.78169 116.72612 101.16406 116.68945 C 101.55878 116.66479 101.92283 116.63432 102.25586 116.59766 C 102.5889 116.56032 102.8855 116.52299 103.14453 116.48633 C 103.4159 116.43699 103.62542 116.39967 103.77344 116.375 L 103.77344 110.36133 C 103.77344 109.81859 103.71124 109.32493 103.58789 108.88086 C 103.46454 108.42453 103.25502 108.03753 102.95898 107.7168 C 102.67529 107.3838 102.29356 107.12976 101.8125 106.95703 C 101.34379 106.77203 100.76301 106.67969 100.07227 106.67969 z M 64.880859 106.7168 C 64.153111 106.7168 63.499653 106.84122 62.919922 107.08789 C 62.34019 107.32229 61.846499 107.6542 61.439453 108.08594 C 61.044742 108.50527 60.742894 109.01145 60.533203 109.60352 C 60.323513 110.18325 60.21875 110.82428 60.21875 111.52734 C 60.21875 112.32914 60.33071 113.01988 60.552734 113.59961 C 60.77476 114.17934 61.076608 114.66588 61.458984 115.06055 C 61.841361 115.44295 62.285292 115.72711 62.791016 115.91211 C 63.309074 116.09718 63.857768 116.18945 64.4375 116.18945 C 65.004897 116.18945 65.498589 116.11682 65.917969 115.96875 C 66.349684 115.80842 66.639093 115.67874 66.787109 115.58008 L 66.787109 115.98633 C 66.787109 116.87446 66.5599 117.52262 66.103516 117.92969 C 65.659466 118.33669 64.924172 118.53906 63.900391 118.53906 C 63.357663 118.53906 62.833848 118.48405 62.328125 118.37305 C 61.834736 118.27438 61.415685 118.15715 61.070312 118.02148 L 60.755859 119.51953 C 61.150571 119.65526 61.612185 119.77243 62.142578 119.87109 C 62.685306 119.96976 63.25888 120.01953 63.863281 120.01953 C 65.417456 120.01953 66.577045 119.68755 67.341797 119.02148 C 68.10655 118.35542 68.490234 117.28098 68.490234 115.80078 L 68.490234 107.2168 C 68.083189 107.11806 67.577058 107.01334 66.972656 106.90234 C 66.38059 106.77901 65.682616 106.7168 64.880859 106.7168 z M 89.697266 106.7168 C 88.895508 106.7168 88.185095 106.77901 87.568359 106.90234 C 86.963958 107.01334 86.457827 107.11806 86.050781 107.2168 L 86.050781 119.96484 L 87.771484 119.96484 L 87.771484 116.11523 C 87.981175 116.2509 88.295464 116.39302 88.714844 116.54102 C 89.146559 116.68902 89.640251 116.76367 90.195312 116.76367 C 90.886056 116.76367 91.49695 116.6412 92.027344 116.39453 C 92.570071 116.14786 93.026443 115.80149 93.396484 115.35742 C 93.766526 114.91336 94.043495 114.38237 94.228516 113.76562 C 94.425871 113.14889 94.525391 112.47773 94.525391 111.75 C 94.525391 110.97287 94.408187 110.27494 94.173828 109.6582 C 93.951803 109.02914 93.630317 108.50003 93.210938 108.06836 C 92.791556 107.63663 92.28738 107.30276 91.695312 107.06836 C 91.103246 106.83403 90.437348 106.7168 89.697266 106.7168 z M 110.44336 106.7168 C 109.59227 106.7168 108.83929 106.77181 108.18555 106.88281 C 107.53181 106.99381 107.00799 107.09853 106.61328 107.19727 L 106.61328 116.54102 L 108.33398 116.54102 L 108.33398 108.41992 C 108.39566 108.40726 108.49518 108.38795 108.63086 108.36328 C 108.77888 108.33928 108.93865 108.32126 109.11133 108.30859 C 109.29635 108.28393 109.48819 108.26591 109.68555 108.25391 C 109.8829 108.24124 110.07279 108.23437 110.25781 108.23438 C 110.7142 108.23436 111.09788 108.29659 111.40625 108.41992 C 111.71462 108.53092 111.9595 108.71554 112.14453 108.97461 C 112.32955 109.23361 112.4592 109.57279 112.5332 109.99219 C 112.61954 110.41152 112.66406 110.9177 112.66406 111.50977 L 112.66406 116.54102 L 114.38477 116.54102 L 114.38477 111.13867 C 114.38477 110.48494 114.32257 109.88648 114.19922 109.34375 C 114.07587 108.80102 113.85915 108.33943 113.55078 107.95703 C 113.25475 107.56236 112.85533 107.26051 112.34961 107.05078 C 111.84388 106.82878 111.20811 106.7168 110.44336 106.7168 z M 32.132812 106.91992 L 32.132812 112.32227 C 32.132812 112.66858 32.155387 112.99728 32.193359 113.3125 A 57.873474 57.873474 0 0 0 35.142578 116.67188 C 35.435943 116.71758 35.74794 116.74609 36.091797 116.74609 C 36.942893 116.74609 37.688673 116.68914 38.330078 116.57812 C 38.983818 116.46712 39.509586 116.36234 39.904297 116.26367 L 39.904297 106.91992 L 38.183594 106.91992 L 38.183594 115.04297 C 38.12192 115.06764 38.017157 115.09057 37.869141 115.11523 C 37.733459 115.1279 37.578936 115.1472 37.40625 115.17188 C 37.233564 115.18453 37.048918 115.19698 36.851562 115.20898 C 36.654207 115.22165 36.462364 115.22852 36.277344 115.22852 C 35.401579 115.22852 34.778245 114.97448 34.408203 114.46875 C 34.038162 113.96302 33.853516 113.12493 33.853516 111.95312 L 33.853516 106.91992 L 32.132812 106.91992 z M 27.814453 107.14062 A 57.873474 57.873474 0 0 0 29.328125 109.43555 C 29.298563 109.24499 29.267403 109.05602 29.21875 108.88086 C 29.095403 108.42453 28.885877 108.03753 28.589844 107.7168 C 28.387545 107.47934 28.116914 107.29693 27.814453 107.14062 z M 75.28125 108.14258 C 75.984329 108.14258 76.534976 108.39472 76.929688 108.90039 C 77.336731 109.39379 77.533818 110.02951 77.521484 110.80664 L 72.748047 110.80664 C 72.785051 110.47357 72.857737 110.14684 72.96875 109.82617 C 73.092097 109.50544 73.25906 109.22128 73.46875 108.97461 C 73.67844 108.72788 73.93053 108.53081 74.226562 108.38281 C 74.534931 108.22248 74.886539 108.14258 75.28125 108.14258 z M 64.900391 108.23438 C 65.393779 108.23438 65.782708 108.25926 66.066406 108.30859 C 66.36244 108.34559 66.596845 108.38817 66.769531 108.4375 L 66.769531 114.0625 C 66.547507 114.23523 66.243705 114.38972 65.861328 114.52539 C 65.478952 114.64872 65.0599 114.70898 64.603516 114.70898 C 64.270478 114.70898 63.94375 114.64872 63.623047 114.52539 C 63.314679 114.40206 63.03771 114.21024 62.791016 113.95117 C 62.556656 113.69217 62.364814 113.36544 62.216797 112.9707 C 62.081115 112.57597 62.013672 112.10193 62.013672 111.54688 C 62.013672 110.5478 62.260518 109.74504 62.753906 109.14062 C 63.25963 108.53623 63.975287 108.23437 64.900391 108.23438 z M 89.677734 108.25195 C 90.602838 108.25195 91.343375 108.55576 91.898438 109.16016 C 92.4535 109.76456 92.730469 110.62753 92.730469 111.75 C 92.730469 112.2434 92.680709 112.70505 92.582031 113.13672 C 92.483353 113.55612 92.323587 113.92536 92.101562 114.24609 C 91.879537 114.55443 91.590129 114.80133 91.232422 114.98633 C 90.88705 115.15906 90.467998 115.24609 89.974609 115.24609 C 89.50589 115.24609 89.074399 115.16626 88.679688 115.00586 C 88.284976 114.84553 87.981175 114.67853 87.771484 114.50586 L 87.771484 108.4375 C 87.94417 108.38783 88.173333 108.34526 88.457031 108.30859 C 88.753065 108.27193 89.159676 108.25195 89.677734 108.25195 z M 54.623047 112.08398 C 55.017758 112.08398 55.34973 112.10692 55.621094 112.15625 C 55.904792 112.19358 56.109075 112.24335 56.232422 112.30469 L 56.232422 115.17383 C 56.022732 115.22316 55.758203 115.25854 55.4375 115.2832 C 55.129132 115.2952 54.770327 115.30273 54.363281 115.30273 C 53.684872 115.30273 53.148618 115.18557 52.753906 114.95117 C 52.359196 114.70451 52.162109 114.27298 52.162109 113.65625 C 52.162109 113.32318 52.241992 113.05671 52.402344 112.85938 C 52.562695 112.6497 52.759781 112.48997 52.994141 112.37891 C 53.240835 112.25591 53.505364 112.17601 53.789062 112.13867 C 54.085096 112.10201 54.364018 112.08398 54.623047 112.08398 z M 100.48047 112.08398 C 100.87518 112.08398 101.20715 112.10692 101.47852 112.15625 C 101.76221 112.19358 101.96649 112.24335 102.08984 112.30469 L 102.08984 115.17383 C 101.88015 115.22316 101.61562 115.25854 101.29492 115.2832 C 100.98655 115.2952 100.62774 115.30273 100.2207 115.30273 C 99.542293 115.30273 99.006039 115.18557 98.611328 114.95117 C 98.216617 114.70451 98.019531 114.27298 98.019531 113.65625 C 98.019531 113.32318 98.099414 113.05671 98.259766 112.85938 C 98.420117 112.6497 98.617203 112.48997 98.851562 112.37891 C 99.098257 112.25591 99.364738 112.17601 99.648438 112.13867 C 99.944469 112.10201 100.22144 112.08398 100.48047 112.08398 z "
       id="path4239"
       transform="translate(0,924.36218)" />
    <path
       style="fill:none;fill-rule:evenodd;stroke:#ffffff;stroke-width:2;stroke-linecap:butt;stroke-linejoin:miter;stroke-opacity:1;stroke-miterlimit:4;stroke-dasharray:none"
       d="M 81.714844 31.072266 C 80.977814 31.074066 80.275001 31.272206 79.648438 31.753906 L 77.65625 34.90625 C 59.840322 47.52232 78.385503 67.373713 52.945312 93.220703 C 52.458582 94.154503 53.062187 94.967222 53.525391 95.794922 C 53.203887 96.120722 51.933371 96.2121 50.951172 96.375 C 51.131373 97.4978 51.832468 98.194303 52.818359 98.658203 L 51.53125 98.949219 C 63.302725 111.67975 74.5704 92.29015 76.535156 86.595703 C 79.216515 103.53754 83.257462 104.9348 87.767578 109.70898 C 88.505287 108.98268 89.22399 108.17629 89.759766 106.55469 C 90.803296 107.18419 91.631989 106.85921 92.333984 105.97461 C 93.298542 103.29081 93.466406 100.36312 93.265625 97.169922 C 100.06352 102.21446 106.79629 105.87205 113.21289 102.61719 C 113.98262 102.05979 112.66795 101.19748 111.3457 100.33398 C 114.20952 100.79268 114.86739 98.990866 116.20312 97.884766 C 115.70667 97.591426 115.16837 97.254296 114.60156 96.876953 C 114.60932 96.880639 114.61725 96.884995 114.625 96.888672 C 81.7016 66.344912 106.90057 59.696464 88.240234 33.871094 C 86.455232 32.813819 83.925933 31.066868 81.714844 31.072266 z "
       transform="translate(0,924.36218)"
       id="path4163" />
    <path
       style="opacity:1;fill:#ffffff;fill-opacity:1;stroke:none;stroke-width:2;stroke-linecap:round;stroke-linejoin:round;stroke-miterlimit:4;stroke-dasharray:none"
       d="M 76.5 9 A 63 63 0 0 0 13.5 72 A 63 63 0 0 0 47.667969 128 L 48.765625 128 A 61.055458 61.055458 0 0 1 15.267578 73.591797 A 61.055458 61.055458 0 0 1 76.322266 12.535156 A 61.055458 61.055458 0 0 1 128 41.125 L 128 35.775391 A 63 63 0 0 0 76.5 9 z M 128 105.9707 A 61.055458 61.055458 0 0 1 104.02344 128 L 105.22852 128 A 63 63 0 0 0 128 108.1543 L 128 105.9707 z "
       transform="translate(0,924.36218)"
       id="path4222" />
    <path
       style="fill:#fcaf3e;fill-rule:evenodd;stroke:none;stroke-width:1px;stroke-linecap:butt;stroke-linejoin:miter;stroke-opacity:1"
       d="m 50.951369,1020.7379 c 0.180201,1.1228 0.88148,1.8195 1.867371,2.2834 l -1.286845,0.2903 c 13.355864,14.444 26.079542,-12.4875 25.282156,-13.8166 12.1733,6.7031 24.804149,23.3654 36.399269,17.4837 0.76973,-0.5574 -0.54512,-1.4199 -1.86737,-2.2834 2.86382,0.4587 3.52138,-1.3418 4.85712,-2.4479 -8.12757,-4.8023 -26.627185,-20.7584 -24.587679,-51.248 l -19.0345,-3.69657 C 69.64361,970.72263 68,976.36218 68.185781,990.54432 68.422827,1008.6399 60,1020.3622 50.951369,1020.7379 Z"
       id="path4174"
       inkscape:connector-curvature="0"
       sodipodi:nodetypes="cccccccccsc" />
    <path
       style="opacity:1;fill:#f57900;fill-rule:evenodd;stroke:none;stroke-width:1px;stroke-linecap:butt;stroke-linejoin:miter;stroke-opacity:1"
       d="m 81.714844,31.072266 c -0.73703,0.0018 -1.439843,0.19994 -2.066406,0.68164 L 77.65625,34.90625 c -17.815928,12.61607 0.729252,32.467463 -24.710938,58.314453 -0.486731,0.9338 0.116875,1.746519 0.580079,2.574219 -0.321504,0.3258 -1.59202,0.417178 -2.574219,0.580078 11.480123,5 21.657759,-19.882219 23.923828,-24.605469 2.458986,31.318549 7.318259,32.038749 12.892578,37.939449 0.737709,-0.7263 1.456412,-1.53269 1.992188,-3.15429 1.04353,0.6295 1.872223,0.30452 2.574218,-0.58008 C 95.559777,96.999109 89.972763,85.371404 90.929688,69.777344 100.03283,86.586804 107.61178,93.562872 114.625,96.888672 81.7016,66.344912 106.90057,59.696464 88.240234,33.871094 86.455232,32.813819 83.925933,31.066868 81.714844,31.072266 Z"
       transform="translate(0,924.36218)"
       id="path4170"
       inkscape:connector-curvature="0"
       sodipodi:nodetypes="sccccccccccccs" />
    <text
       xml:space="preserve"
       style="font-style:normal;font-weight:normal;font-size:43.07542801px;line-height:125%;font-family:Sans;letter-spacing:0px;word-spacing:0px;fill:#f57900;fill-opacity:1;stroke:none;stroke-width:1px;stroke-linecap:butt;stroke-linejoin:miter;stroke-opacity:1;"
       x="-1.0573736"
       y="1064.6421"
       id="text4155"
       sodipodi:linespacing="125%"><tspan
         sodipodi:role="line"
         id="tspan4157"
         x="-1.0573736"
         y="1064.6421"
         style="font-size:10.768857px;letter-spacing:5.94441223px;fill:#f57900;">INTERACTIVE</tspan></text>
    <path
       style="color:#000000;font-style:normal;font-variant:normal;font-weight:normal;font-stretch:normal;font-size:medium;line-height:normal;font-family:sans-serif;text-indent:0;text-align:start;text-decoration:none;text-decoration-line:none;text-decoration-style:solid;text-decoration-color:#000000;letter-spacing:normal;word-spacing:normal;text-transform:none;direction:ltr;block-progression:tb;writing-mode:lr-tb;baseline-shift:baseline;text-anchor:start;white-space:normal;clip-rule:nonzero;display:inline;overflow:visible;visibility:visible;opacity:1;isolation:auto;mix-blend-mode:normal;color-interpolation:sRGB;color-interpolation-filters:linearRGB;solid-color:#000000;solid-opacity:1;fill:#ffffff;fill-opacity:1;fill-rule:evenodd;stroke:none;stroke-width:1.21321559px;stroke-linecap:round;stroke-linejoin:miter;stroke-miterlimit:4;stroke-dasharray:none;stroke-dashoffset:0;stroke-opacity:1;color-rendering:auto;image-rendering:auto;shape-rendering:auto;text-rendering:auto;enable-background:accumulate"
       d="m 75.343754,971.85046 a 1.610232,1.610232 0 0 0 -1.610232,1.61023 1.610232,1.610232 0 0 0 1.610232,1.61023 1.610232,1.610232 0 0 0 1.610232,-1.61023 1.610232,1.610232 0 0 0 -1.610232,-1.61023 z m 6.546286,0.42772 a 1.610232,1.610232 0 0 0 -1.610232,1.61023 1.610232,1.610232 0 0 0 1.610232,1.61023 1.610232,1.610232 0 0 0 1.610232,-1.61023 1.610232,1.610232 0 0 0 -1.610232,-1.61023 z m -9.12989,4.30234 a 0.48843847,0.48843847 0 0 0 -0.44187,0.61327 c 0.286001,1.144 1.1444,1.98388 2.220358,2.53014 1.075958,0.54625 2.387189,0.82796 3.723662,0.8916 1.336472,0.0636 2.69904,-0.092 3.879338,-0.46388 1.180298,-0.37188 2.194855,-0.95399 2.777021,-1.82724 a 0.48868454,0.48868454 0 1 0 -0.812978,-0.54251 c -0.394614,0.59192 -1.210119,1.10865 -2.258099,1.43883 -1.04798,0.33019 -2.310534,0.47832 -3.538107,0.41986 -1.227574,-0.0584 -2.420842,-0.32678 -3.328967,-0.78782 -0.908124,-0.46105 -1.5132,-1.0853 -1.715588,-1.89485 a 0.48843847,0.48843847 0 0 0 -0.456023,-0.3774 0.48843847,0.48843847 0 0 0 -0.04875,0 z"
       id="path4199"
       inkscape:connector-curvature="0" />
    <rect
       style="opacity:1;fill:#f57900;fill-opacity:1;stroke:none;stroke-width:2;stroke-linecap:round;stroke-linejoin:round;stroke-miterlimit:4;stroke-dasharray:none"
       id="rect4160"
       width="24"
       height="20"
       x="0"
       y="924.36218"
       rx="0"
       ry="0" />
    <path
       transform="translate(0,924.36218)"
       id="path4160"
       d="M 17.279297 106.67969 C 16.193842 106.67969 15.336102 106.93372 14.707031 107.43945 C 14.077961 107.93285 13.763672 108.60401 13.763672 109.45508 C 13.763672 109.88681 13.838311 110.25088 13.986328 110.54688 C 14.134345 110.84293 14.331431 111.09502 14.578125 111.30469 C 14.82482 111.51442 15.114228 111.70099 15.447266 111.86133 C 15.792638 112.00933 16.151442 112.15669 16.521484 112.30469 C 17.286237 112.61309 17.834931 112.89005 18.167969 113.13672 C 18.501006 113.38345 18.666016 113.71739 18.666016 114.13672 C 18.666016 114.54379 18.493809 114.84039 18.148438 115.02539 C 17.8154 115.21046 17.296829 115.30273 16.59375 115.30273 L 16.59375 115.30078 C 15.878336 115.30078 15.304762 115.22814 14.873047 115.08008 C 14.441332 114.93208 14.127043 114.82009 13.929688 114.74609 L 13.615234 116.22656 C 13.78792 116.30056 14.114649 116.40535 14.595703 116.54102 C 15.076757 116.68902 15.742654 116.76367 16.59375 116.76367 C 17.814887 116.76367 18.75251 116.53447 19.40625 116.07812 C 20.072325 115.62172 20.40625 114.95063 20.40625 114.0625 C 20.40625 113.60617 20.338807 113.22246 20.203125 112.91406 C 20.067443 112.59333 19.870357 112.32356 19.611328 112.10156 C 19.364633 111.87956 19.060832 111.68774 18.703125 111.52734 C 18.345418 111.35468 17.938807 111.18243 17.482422 111.00977 C 17.13705 110.88643 16.840445 110.76927 16.59375 110.6582 C 16.347055 110.5472 16.13753 110.42997 15.964844 110.30664 C 15.804492 110.17097 15.682046 110.02166 15.595703 109.86133 C 15.521694 109.70093 15.484375 109.51631 15.484375 109.30664 C 15.484375 108.89957 15.663777 108.60297 16.021484 108.41797 C 16.379191 108.22064 16.798243 108.12305 17.279297 108.12305 C 17.834359 108.12305 18.308414 108.17806 18.703125 108.28906 C 19.097836 108.38773 19.389197 108.48727 19.574219 108.58594 L 19.888672 107.10547 C 19.789994 107.06847 19.647911 107.02394 19.462891 106.97461 C 19.290205 106.92561 19.085922 106.88304 18.851562 106.8457 C 18.617203 106.79637 18.365114 106.75903 18.09375 106.73438 C 17.822387 106.6977 17.550661 106.67969 17.279297 106.67969 z M 25.703125 106.67969 C 25.098724 106.67969 24.537589 106.72947 24.019531 106.82812 C 23.501473 106.91447 23.132181 107.0068 22.910156 107.10547 L 23.113281 108.5293 C 23.322971 108.44296 23.63726 108.36306 24.056641 108.28906 C 24.488356 108.20273 24.987291 108.16016 25.554688 108.16016 C 25.998738 108.16016 26.357542 108.22761 26.628906 108.36328 C 26.912605 108.48661 27.134571 108.65886 27.294922 108.88086 C 27.455273 109.09059 27.56528 109.33743 27.626953 109.62109 C 27.688626 109.89249 27.720703 110.16947 27.720703 110.45312 L 27.720703 110.93555 C 27.671364 110.92288 27.584285 110.90357 27.460938 110.87891 C 27.337591 110.85424 27.190264 110.82935 27.017578 110.80469 C 26.857227 110.76735 26.685021 110.74247 26.5 110.73047 C 26.314979 110.7058 26.135577 110.69336 25.962891 110.69336 C 25.420163 110.69336 24.901592 110.75033 24.408203 110.86133 C 23.914814 110.97233 23.483323 111.14457 23.113281 111.37891 C 22.74324 111.61331 22.446635 111.9204 22.224609 112.30273 C 22.014919 112.68513 21.910156 113.14147 21.910156 113.67188 C 21.910156 114.22693 22.002479 114.70299 22.1875 115.09766 C 22.372521 115.49239 22.631806 115.81381 22.964844 116.06055 C 23.297881 116.29488 23.692053 116.46713 24.148438 116.57812 C 24.604821 116.68914 25.105709 116.74414 25.648438 116.74414 C 26.030812 116.74414 26.412545 116.72612 26.794922 116.68945 C 27.189633 116.66479 27.553681 116.63432 27.886719 116.59766 C 28.219756 116.56032 28.516361 116.52299 28.775391 116.48633 C 29.046755 116.43699 29.25628 116.39967 29.404297 116.375 L 29.404297 110.36133 C 29.404297 109.81859 29.342097 109.32493 29.21875 108.88086 C 29.095403 108.42453 28.885877 108.03753 28.589844 107.7168 C 28.306145 107.3838 27.924413 107.12976 27.443359 106.95703 C 26.97464 106.77203 26.393869 106.67969 25.703125 106.67969 z M 32.132812 106.91992 L 32.132812 112.32227 C 32.132812 112.976 32.200254 113.57445 32.335938 114.11719 C 32.47162 114.64759 32.693585 115.11113 33.001953 115.50586 C 33.310321 115.90059 33.716933 116.20769 34.222656 116.42969 C 34.72838 116.63935 35.351714 116.74609 36.091797 116.74609 C 36.942893 116.74609 37.688673 116.68914 38.330078 116.57812 C 38.983818 116.46712 39.509586 116.36234 39.904297 116.26367 L 39.904297 106.91992 L 38.183594 106.91992 L 38.183594 115.04297 C 38.12192 115.06764 38.017157 115.09057 37.869141 115.11523 C 37.733459 115.1279 37.578936 115.1472 37.40625 115.17188 C 37.233564 115.18453 37.048918 115.19698 36.851562 115.20898 C 36.654207 115.22165 36.462364 115.22852 36.277344 115.22852 C 35.401579 115.22852 34.778245 114.97448 34.408203 114.46875 C 34.038162 113.96302 33.853516 113.12493 33.853516 111.95312 L 33.853516 106.91992 L 32.132812 106.91992 z M 26.111328 112.08398 C 26.506039 112.08398 26.838011 112.10692 27.109375 112.15625 C 27.393074 112.19358 27.597356 112.24335 27.720703 112.30469 L 27.720703 115.17383 C 27.511012 115.22316 27.244531 115.25854 26.923828 115.2832 C 26.61546 115.2952 26.258608 115.30273 25.851562 115.30273 C 25.173153 115.30273 24.636897 115.18557 24.242188 114.95117 C 23.847476 114.70451 23.650391 114.27298 23.650391 113.65625 C 23.650391 113.32318 23.730274 113.05671 23.890625 112.85938 C 24.050976 112.6497 24.248062 112.48997 24.482422 112.37891 C 24.729116 112.25591 24.993645 112.17601 25.277344 112.13867 C 25.573377 112.10201 25.852299 112.08398 26.111328 112.08398 z "
       style="font-style:normal;font-variant:normal;font-weight:normal;font-stretch:normal;font-size:medium;line-height:125%;font-family:Ubuntu;-inkscape-font-specification:Ubuntu;letter-spacing:0px;word-spacing:0px;fill:#f57900;fill-opacity:1;stroke:none;stroke-width:1px;stroke-linecap:butt;stroke-linejoin:miter;stroke-opacity:1" />
  </g>
</svg>
